# Blender 4.3.2
# www.blender.org
mtllib doorway.mtl
o Plane.003
v 0.100000 -0.000000 3.799999
v 0.100000 -0.000000 -3.800000
v 0.100000 6.000000 3.799999
v 0.100000 6.000000 -3.800000
v -0.099999 6.000000 3.799999
v -0.100000 -0.000000 3.799999
v -0.100000 -0.000000 -3.800000
v -0.100000 6.000000 -3.800000
v 0.100000 -0.000000 2.000000
v 0.100000 -0.000000 -2.000000
v 0.100000 4.000000 -2.000000
v 0.100000 4.000000 2.000000
v -0.100000 4.000000 2.000000
v -0.100000 -0.000000 2.000000
v -0.100000 4.000000 -2.000000
v -0.100000 -0.000000 -2.000000
vn 1.0000 -0.0000 -0.0000
vn -1.0000 -0.0000 -0.0000
vn -0.0000 1.0000 -0.0000
vn -0.0000 -1.0000 -0.0000
vn -0.0000 -0.0000 -1.0000
vn -0.0000 -0.0000 1.0000
vt 0.763158 0.000000
vt 1.000000 0.000000
vt 1.000000 1.000000
vt 0.763158 0.666667
vt 0.000000 0.000000
vt 0.000000 1.000000
vt 0.236842 0.666667
vt 0.236842 0.000000
vt 0.763158 0.000000
vt 0.625000 0.000000
vt 0.375000 0.250000
vt 0.375000 0.750000
vt 0.625000 0.500000
vt 0.625000 0.521840
vt 0.625000 0.728160
vt 0.875000 0.728160
vt 0.875000 0.521840
vt 0.236842 0.666667
s 0
f 10/1/1 2/2/1 4/3/1 11/4/1
f 6/5/2 5/6/2 13/7/2 14/8/2
f 4/3/3 8/3/3 5/6/3 3/6/3
f 7/2/4 2/2/4 10/1/4 16/9/4
f 1/5/4 6/5/4 14/8/4 9/8/4
f 2/2/5 7/2/5 8/3/5 4/3/5
f 3/6/6 5/6/6 6/5/6 1/5/6
f 13/10/5 12/10/5 9/11/5 14/11/5
f 16/12/6 10/12/6 11/13/6 15/13/6
f 15/14/4 11/15/4 12/16/4 13/17/4
f 11/4/1 4/3/1 3/6/1 12/18/1
f 15/4/2 8/3/2 7/2/2 16/9/2
f 13/7/2 5/6/2 8/3/2 15/4/2
f 12/18/1 3/6/1 1/5/1 9/8/1
