# Blender 4.3.2
# www.blender.org
mtllib no_wall.mtl
o Cube
v -0.100000 6.000000 3.799999
v -0.100000 6.000000 -3.800000
v 0.100000 6.000000 3.799999
v 0.100000 6.000000 -3.800000
v -0.100000 5.800001 3.799999
v -0.100000 5.800001 -3.800000
v 0.100000 5.800001 -3.800000
v 0.100000 5.800001 3.799999
vn -1.0000 -0.0000 -0.0000
vn -0.0000 -0.0000 -1.0000
vn 1.0000 -0.0000 -0.0000
vn -0.0000 -0.0000 1.0000
vn -0.0000 1.0000 -0.0000
vn -0.0000 -1.0000 -0.0000
vt 0.616667 0.000000
vt 0.625000 0.000000
vt 0.625000 0.250000
vt 0.616667 0.250000
vt 0.625000 0.500000
vt 0.616667 0.500000
vt 0.625000 0.750000
vt 0.616667 0.750000
vt 0.625000 1.000000
vt 0.616667 1.000000
vt 0.875000 0.500000
vt 0.875000 0.750000
s 0
f 5/1/1 1/2/1 2/3/1 6/4/1
f 6/4/2 2/3/2 4/5/2 7/6/2
f 7/6/3 4/5/3 3/7/3 8/8/3
f 8/8/4 3/7/4 1/9/4 5/10/4
f 4/5/5 2/11/5 1/12/5 3/7/5
f 8/8/6 5/1/6 6/4/6 7/6/6
